<?xml version="1.0" encoding="UTF-8"?>
<svg width="300px" height="120px" viewBox="0 0 500 176" version="1.1" xmlns="http://www.w3.org/2000/svg" xmlns:xlink="http://www.w3.org/1999/xlink">
    <!-- Generator: Sketch 57.1 (83088) - https://sketch.com -->
    <title>fr</title>
    <desc>Created with Sketch.</desc>
    <g id="Page-1" stroke="none" stroke-width="1" fill="none" fill-rule="evenodd">
        <g id="fr" fill="#000000">
            <path d="M43.9986117,175.926453 L20.736026,148.214321 L16.8888314,148.214321 L16.8888314,175.949906 L0.00294128028,175.949906 L0.00294128028,114.102571 L15.1211219,94.853882 L33.7894279,94.853882 C40.339659,94.853882 46.2957516,96.7828552 51.0194477,100.500086 C55.6725531,104.155754 58.9667871,109.403264 60.299187,116.096039 C61.2992223,121.132476 60.9992117,126.333082 59.3491535,131.032389 C57.7108604,135.696517 54.8019342,139.876936 50.5782557,142.981468 L50.5694319,142.96681 C48.1958187,144.737479 45.5369013,146.062548 42.6809182,146.933225 C42.427968,147.009446 42.1720767,147.079803 41.913244,147.150161 L66.0699789,175.926453 L43.9986117,175.926453 Z M179.235738,175.926453 L160.014471,122.413573 L140.354954,175.926453 L122.38079,175.926453 L152.173018,94.8157716 L168.00593,94.8861293 L197.115781,175.926453 L179.235738,175.926453 Z M116.101157,175.926453 L71.0642729,175.926453 L71.0054473,114.615596 L86.1265692,94.8509505 L117.701213,94.8509505 L117.701213,111.906825 L94.3562714,111.906825 L87.8325117,120.4289 L87.8383943,127.614178 L116.101157,127.614178 L116.101157,144.670053 L87.8531007,144.670053 L87.8678071,158.867647 L116.101157,158.867647 L116.101157,175.926453 Z M444.58628,94.8773346 L415.552902,175.941111 L399.722931,175.941111 L370.786616,94.8773346 L388.654894,94.8773346 L407.649682,148.094127 L426.709178,94.8773346 L444.58628,94.8773346 Z M293.227996,175.92059 L293.227996,111.865783 L267.680036,111.865783 L267.680036,94.8509505 L335.661847,94.8509505 L335.661847,111.865783 L310.116828,111.865783 L310.116828,175.92059 L293.227996,175.92059 Z M345.232773,175.914727 L345.232773,94.853882 L362.121604,94.853882 L362.121604,175.914727 L345.232773,175.914727 Z M498.388178,175.935248 L446.345165,175.935248 L446.28634,114.606801 L461.483935,94.8509505 L500,94.8509505 L500,111.818878 L469.710696,111.818878 L463.113404,120.396652 L463.122228,127.661083 L498.388178,127.661083 L498.388178,144.629011 L463.136934,144.629011 L463.151641,158.964388 L498.388178,158.964388 L498.388178,175.935248 Z M340.86203,17.5718312 L317.055308,17.5718312 C312.652211,17.5718312 304.719578,19.7793034 304.775463,25.2349554 C304.848995,32.4671388 312.602209,32.5316334 318.222996,33.0974264 C322.617269,33.543025 327.846865,34.1176128 332.752921,36.0846963 C338.967846,38.5794625 344.07685,42.9240494 345.82397,50.8216992 C347.876984,60.0795976 344.906291,68.6690979 337.52956,74.6934745 C331.914656,79.2813817 324.290857,81.6735429 317.246491,81.6735429 L293.439768,81.6735429 L293.439768,64.7173414 L317.246491,64.7173414 C321.505465,64.7173414 328.679248,63.2222407 329.485158,57.6493259 C329.799875,55.4770325 329.152794,52.8503457 326.487994,51.7832542 C323.711425,50.6692575 319.843642,50.250043 316.572938,49.9246387 C306.199042,48.8751366 294.657458,46.6002383 289.921997,35.9527757 C287.65427,30.8606384 287.316023,24.2616741 288.924903,18.9262165 C292.586797,6.81003733 305.116651,0.61856129 317.055308,0.61856129 L340.86203,0.61856129 L340.86203,17.5718312 Z M232.711155,0.60097187 L232.714096,55.5679112 C232.714096,58.0802668 233.855313,60.0385556 235.567138,61.4251882 C238.264292,63.609208 242.214431,64.7085467 246.052802,64.7085467 L246.052802,64.7378624 L262.762215,64.7349309 L262.762215,0.60097187 L279.648105,0.60097187 L279.648105,81.6764745 L246.052802,81.6882007 L246.052802,81.720448 C238.711366,81.720448 230.825794,79.3605341 225.013824,74.6524325 C219.507747,70.1905828 215.828206,63.8261441 215.828206,55.5679112 L215.828206,0.60097187 L232.711155,0.60097187 Z M0,81.6764745 L0,20.2483547 L15.5093709,0.60097187 L47.7516854,0.60097187 L47.7516854,17.6363257 L23.6067155,17.6363257 L16.8858901,26.1496053 L16.8858901,34.1674495 L44.0633199,34.1674495 L44.0633199,51.1852139 L16.8858901,51.1852139 L16.8858901,81.6764745 L0,81.6764745 Z M111.230396,24.2939214 C106.944951,19.9727871 101.021213,17.3021267 94.4798052,17.3021267 C92.4562043,17.3021267 90.5679024,17.5278576 88.832547,17.9529353 C87.5707378,18.2607501 86.3148111,18.6975541 85.0824147,19.2428261 L71.1583938,36.8615624 C70.908385,38.371321 70.7907338,39.6025804 70.7907338,41.1709704 C70.7907338,47.7640716 73.4437686,53.7298167 77.729214,58.0480195 C82.0146593,62.3632907 87.9383978,65.0368826 94.4798052,65.0368826 C101.021213,65.0368826 106.944951,62.3632907 111.230396,58.0480195 C115.518783,53.7298167 118.168877,47.76114 118.168877,41.1709704 C118.168877,34.5778693 115.518783,28.6091926 111.230396,24.2939214 Z M94.4798052,0 C105.762556,0 115.977623,4.61135976 123.36906,12.0604794 C130.763439,19.509599 135.340071,29.8023416 135.340071,41.1709704 C135.340071,52.5366677 130.763439,62.8294103 123.36906,70.2785299 C115.977623,77.7276495 105.762556,82.3390093 94.4798052,82.3390093 C83.1999953,82.3390093 72.9819876,77.7276495 65.5905503,70.2785299 C54.1989717,58.801433 51.5312305,44.290161 55.4078379,29.0753122 L74.06732,5.46444666 C77.6733296,3.57358395 80.7999106,2.17815658 84.8088756,1.19314903 C87.9795757,0.413351384 91.2238079,0 94.4798052,0 Z M206.21316,81.6706113 C198.19523,81.6706113 189.894937,81.8406424 181.950539,81.6559535 C171.226632,81.4038384 161.538054,76.9156046 154.470158,69.7918893 C147.187548,62.4571009 142.684448,52.3226631 142.684448,41.13286 C142.684448,29.9401254 147.187548,19.8056876 154.470158,12.4650361 C161.749826,5.13317924 171.806064,0.59510873 182.915279,0.59510873 L206.21316,0.59510873 L206.21316,17.6099416 L182.915279,17.6099416 C176.467993,17.6099416 170.632493,20.2424915 166.405873,24.4961997 C162.185136,28.7528395 159.570338,34.6365007 159.570338,41.13286 C159.570338,47.6292194 162.185136,53.5070174 166.405873,57.7665888 C169.63834,61.0177 173.812017,63.3219141 178.479829,64.2307008 C181.894655,64.8873725 185.933033,64.6880257 189.391979,64.6850942 L206.210219,64.6850942 L206.21316,81.6706113 Z M258.10911,175.929385 C250.09118,175.929385 241.793828,176.099416 233.84943,175.911795 C223.122581,175.662612 213.434004,171.174378 206.366107,164.050663 C199.083497,156.712943 194.583338,146.575573 194.583338,135.388702 C194.583338,124.195967 199.083497,114.058598 206.366107,106.723809 C213.645776,99.389021 223.702013,94.8509505 234.811229,94.8509505 L258.10911,94.8509505 L258.10911,111.865783 L234.811229,111.865783 C228.363942,111.865783 222.528442,114.495402 218.304764,118.754973 C214.081085,123.008681 211.469228,128.889411 211.469228,135.388702 C211.469228,141.88213 214.081085,147.765791 218.304764,152.02243 C221.534289,155.273542 225.707966,157.580687 230.375778,158.483611 C233.790604,159.143214 237.831923,158.943867 241.290869,158.943867 L258.10911,158.940936 L258.10911,175.929385 Z M16.8888314,131.093952 L33.8100168,131.093952 C35.3071285,131.093952 36.6718825,130.912194 37.8660423,130.551611 C38.9278445,130.223275 39.8572891,129.774745 40.6190807,129.203089 L40.6837888,129.138594 C42.0103062,128.162381 42.930927,126.83438 43.4515336,125.348074 C44.095674,123.515843 44.2074426,121.452018 43.8074285,119.438029 C43.3250585,117.010689 42.2338435,115.187252 40.727908,114.005829 C39.0249068,112.666102 36.6248221,111.974251 33.7894279,111.974251 L23.2184665,111.974251 L16.8888314,120.030206 L16.8888314,131.093952 Z" id="Shape"></path>
        </g>
    </g>
</svg>